/* XPM */
static char * minimize_xpm[] = {
"16 16 5 1",
" 	c #DCDCDCDCDCDC",
".	c #3C3C3C3C3C3C",
"X	c #C8C8C8C8C8C8",
"o	c #000000000000",
"O	c #8B8B77776565",
"              ..",
" XXXXXXXXXXXXX..",
" XXXXXXXXXXXXX..",
" XXXXXXXXXXXXX..",
" XXXXXXXXXXXXX..",
" XXXoooooooXXX..",
" XXXXoooooXXXX..",
" XXXXXoooXXXXX..",
" XXXXXXoXXXXXX..",
" XXXXXXXXXXXXX..",
" XXXXXXXXXXXXX..",
" XXXXXXXXXXXXX..",
" XXXXXXXXXXXXX..",
" XXXXXXXXXXXXX..",
"................",
"OOOOOOOOOOOOOOOO"};
